<mxfile host="app.diagrams.net" modified="2023-11-08T09:03:10.908Z" agent="Mozilla/5.0 (Windows NT 10.0; Win64; x64) AppleWebKit/537.36 (KHTML, like Gecko) Chrome/119.0.0.0 Safari/537.36 Edg/119.0.0.0" version="22.0.8" etag="37W5nszfG0b8-anzR96z" type="github">
  <diagram name="Page-1" id="NXQ0QRIZRd4-cakI32fH">
    <mxGraphModel>
      <root>
        <mxCell id="0" />
        <mxCell id="1" parent="0" />
      </root>
    </mxGraphModel>
  </diagram>
</mxfile>
